<svg width="1698" height="1080" viewBox="0 0 1698 1080" fill="none" xmlns="http://www.w3.org/2000/svg">
<g clip-path="url(#clip0_291_28)">
<g filter="url(#filter0_d_291_28)">
<rect width="1698.67" height="1080" rx="14" fill="#634987"/>
</g>
<g clip-path="url(#clip1_291_28)">
<path d="M635.688 334H391.858C374.866 334 361.273 347.549 361.273 364.485V642.234C361.273 659.17 374.866 672.718 391.858 672.718H635.688C652.68 672.718 666.273 659.17 666.273 642.234V364.485C666.273 347.549 652.68 334 635.688 334ZM649.281 642.234C649.281 649.855 643.334 655.783 635.688 655.783H391.858C384.212 655.783 378.265 649.855 378.265 642.234V364.485C378.265 356.863 384.212 350.936 391.858 350.936H635.688C643.334 350.936 649.281 356.863 649.281 364.485V642.234ZM437.735 621.911L475.967 588.039L437.735 554.167V621.911ZM575.368 484.73C568.571 477.955 555.827 469.487 534.588 469.487C511.649 469.487 487.861 475.415 470.869 481.343V384.808H437.735V531.303L461.524 520.295C461.524 520.295 500.604 502.512 534.588 502.512C551.579 502.512 555.827 511.827 555.827 520.295V621.911H589.811V520.295C589.811 517.755 589.811 499.125 575.368 484.73ZM530.34 439.85H564.323C579.616 422.067 587.262 404.284 589.811 384.808H555.827C552.429 404.284 543.933 422.067 530.34 439.85Z" fill="white"/>
<path d="M627.563 694.014V721.707C627.563 733.842 633.494 740.999 646.918 740.999C660.342 740.999 666.273 733.842 666.273 721.707V694.014H654.098V721.396C654.098 727.93 652.225 730.731 647.23 730.731C642.235 730.731 640.05 727.619 640.05 721.396V694.014H627.563Z" fill="white"/>
<path d="M587.604 694.325H575.116V740.377H587.604V726.063L591.037 722.018L601.964 740.377H616.012L599.154 712.373L614.763 694.325H600.403L587.604 711.128V694.325Z" fill="white"/>
<path d="M450.869 694.325H417.778V740.065H451.805V730.108H430.265V721.707H444.937V712.061H430.265V704.594H450.869V694.325Z" fill="white"/>
<path d="M373.76 694.325H361.273V740.377H373.76V721.707H389.057V740.377H401.544V694.325H389.057V711.439H373.76V694.325Z" fill="white"/>
<path fill-rule="evenodd" clip-rule="evenodd" d="M515.802 717.04C515.802 700.237 527.353 693.081 538.591 693.081C549.83 693.081 561.38 700.237 561.38 717.04C561.38 733.842 549.83 740.999 538.591 740.999C527.353 740.999 515.802 734.153 515.802 717.04ZM538.279 703.349C544.835 703.349 548.581 708.639 548.581 717.04C548.581 725.752 544.835 731.042 538.279 731.042C531.723 731.042 527.977 725.441 527.977 717.04C527.977 708.639 531.723 703.349 538.279 703.349Z" fill="white"/>
<path fill-rule="evenodd" clip-rule="evenodd" d="M465.541 694.325H483.648C495.51 694.325 502.691 698.37 502.691 709.261C502.691 716.418 499.569 720.774 493.637 722.641L503.315 740.377H490.203L481.15 724.508H477.716V740.377H465.541V694.325ZM490.828 709.572C490.828 713.306 488.33 714.862 483.335 714.862H478.028V704.282H483.335C488.642 704.282 490.828 705.838 490.828 709.572Z" fill="white"/>
</g>
<path fill-rule="evenodd" clip-rule="evenodd" d="M845.012 705.277C845.131 705.497 845.255 705.715 845.384 705.931L845.412 705.977C846.121 707.149 846.933 708.493 848.652 708.493C851.921 706.117 854.993 703.479 857.837 700.604C875.391 682.471 884.072 660.653 883.66 635.247C883.559 626.747 882.23 618.347 879.782 610.15C875.698 596.727 869.983 584.33 861.513 573.166C857.947 568.451 853.964 564.049 849.78 559.849C848.357 558.419 847.091 556.84 846.003 555.138L841.007 545.708L840.993 545.713C840.887 545.838 840.846 550.218 840.851 557.369C841.414 558.053 842.01 558.712 842.637 559.341C846.821 563.541 850.804 567.943 854.37 572.658C862.84 583.822 868.555 596.219 872.639 609.642C875.087 617.839 876.416 626.239 876.517 634.74C876.929 660.146 868.248 681.963 850.694 700.097C848.889 701.921 846.993 703.65 845.012 705.277Z" fill="white"/>
<path d="M841.007 545.405C840.801 544.991 840.595 545.304 840.393 545.506C840.494 547.553 839.779 549.398 838.651 551.141C837.428 552.889 835.791 554.214 834.16 555.649C825.076 563.538 817.935 573.065 812.215 583.718C804.661 598.061 800.683 613.425 799.565 629.612C799.061 635.454 801.398 656.044 803.241 661.983C808.236 677.761 817.22 690.972 828.907 702.444C831.767 705.204 834.829 707.771 837.991 710.227C838.908 710.227 839.013 709.409 839.215 708.792C839.617 707.484 839.924 706.148 840.132 704.795C841.048 699.675 841.562 694.551 842.171 689.431L841.048 545.405H841.007Z" fill="white"/>
<path d="M846.017 714.74C846.223 712.384 847.392 710.439 848.57 708.493C847.346 707.987 846.425 706.956 845.71 705.825C845.095 704.799 844.587 703.525 844.179 702.444C842.749 698.143 842.437 693.635 842.034 689.228V686.56C841.53 686.974 841.42 690.452 841.42 690.967C841.113 695.677 840.503 700.291 839.586 704.794C839.279 706.634 839.082 708.484 837.955 710.121C837.955 710.328 837.955 710.535 838.055 710.839C839.889 716.267 840.402 721.801 840.714 727.436V729.483C840.714 731.939 840.613 731.428 842.653 732.243C843.468 732.551 844.394 732.657 845.205 733.268C845.82 733.268 845.92 732.762 845.92 732.348L845.613 728.967V719.537C845.512 717.9 845.82 716.258 846.026 714.721L846.017 714.74Z" fill="white"/>
<path d="M923.524 671.897V681.653C923.513 682.04 923.535 682.426 923.59 682.809C923.716 683.964 924.423 684.669 925.462 684.993C926.431 685.249 927.416 685.442 928.41 685.571C928.986 685.637 929.178 685.89 929.243 686.51C929.309 688.694 929.117 688.953 927.006 688.821C922.083 688.563 917.155 688.502 912.231 688.821H911.763C910.228 688.887 910.102 688.755 910.102 687.215C910.102 686.956 910.167 686.637 910.167 686.379C910.167 685.909 910.485 685.674 910.935 685.674C911.964 685.547 912.919 685.289 913.883 685.096C915.226 684.777 915.989 683.941 916.12 682.593C916.308 681.118 916.308 679.577 916.308 678.098L916.373 660.897C916.394 660.398 916.273 659.903 916.025 659.47C915.776 659.038 915.41 658.685 914.969 658.454C913.812 657.809 912.588 657.292 911.319 656.913C910.935 656.786 910.551 656.725 910.233 656.528C909.297 656.077 909.273 655.246 910.167 654.729C910.485 654.541 910.869 654.41 911.253 654.344C915.134 653.769 918.948 652.801 922.635 651.455C923.403 651.197 923.595 651.267 923.665 652.033C923.73 652.503 923.665 653.066 923.599 653.508C923.473 654.344 923.473 655.175 923.473 655.95C923.473 656.27 923.538 656.594 923.857 656.786C924.175 656.979 924.498 656.786 924.793 656.599C926.136 655.565 927.479 654.607 928.949 653.78C931.055 652.625 933.301 651.596 935.735 651.277C938.683 650.892 941.234 651.662 943.476 653.588C944.403 654.42 945.219 655.369 945.905 656.411C946.546 657.35 946.607 657.374 947.44 656.73C949.874 654.931 952.429 653.329 955.181 652.174C958.059 650.953 961.003 650.765 963.942 651.789C966.947 652.878 968.997 654.997 970.214 657.886C971.243 660.197 971.683 662.583 971.683 665.072V682.273C971.683 683.429 972.151 684.152 973.284 684.716C974.501 685.186 975.844 685.42 977.121 685.679C977.955 685.867 977.955 685.867 977.955 686.712C977.828 688.826 977.636 688.957 975.586 688.826C970.453 688.537 965.308 688.537 960.175 688.826C959.145 688.892 959.145 688.892 959.089 687.863V687.544C959.023 685.806 959.023 685.806 960.689 685.43L962.351 684.979C962.914 684.846 963.416 684.527 963.776 684.072C964.136 683.618 964.333 683.056 964.335 682.475L964.522 677.661L964.396 665.082C964.347 663.959 964.11 662.852 963.694 661.808C962.093 657.89 958.579 656.481 955.186 656.866C952.626 657.125 950.388 658.149 948.278 659.628C947.828 659.948 947.51 660.333 947.576 660.976C948.151 665.086 947.763 669.196 947.833 673.302V682.226C947.833 683.833 948.474 684.603 950.009 684.988L952.958 685.632C953.407 685.698 953.66 685.89 953.66 686.402V686.872C953.594 688.671 953.473 688.751 951.675 688.732C946.56 688.474 941.44 688.544 936.39 688.732C934.658 688.798 934.518 688.605 934.598 686.853C934.663 685.82 934.785 685.763 935.749 685.571L937.855 685.186C939.727 684.8 940.415 684.096 940.541 682.104L940.729 677.802L940.602 664.899C940.476 663.292 940.134 661.751 939.259 660.276C937.981 657.9 935.983 656.683 933.245 656.552C930.493 656.364 928.064 657.388 925.757 658.665C924.156 659.605 923.454 660.718 923.581 662.583V671.954L923.524 671.897ZM1044.02 672.287V681.339C1044.03 681.982 1044.08 682.625 1044.15 683.264C1044.18 683.691 1044.34 684.096 1044.62 684.421C1044.9 684.745 1045.27 684.971 1045.69 685.063C1046.79 685.386 1047.93 685.58 1049.07 685.641C1049.72 685.707 1049.84 685.961 1049.91 686.477V686.928C1049.84 689.173 1049.59 689.432 1047.41 689.305C1042.55 688.986 1037.69 689.047 1032.83 689.305L1030.96 689.371C1030.57 689.371 1030.49 689.183 1030.38 688.92C1030.19 688.031 1030.19 687.113 1030.38 686.224C1030.45 685.838 1030.7 685.754 1031.08 685.646C1032.02 685.519 1032.82 685.327 1033.7 685.176C1035.31 684.791 1035.88 684.143 1035.94 682.48L1036.13 677.088V661.296C1036.13 660.14 1035.68 659.436 1034.66 658.919C1033.51 658.275 1032.29 657.829 1031.01 657.378C1030.62 657.252 1030.24 657.12 1029.92 656.927C1029.09 656.35 1028.99 655.518 1029.8 654.875C1030.16 654.575 1030.61 654.395 1031.07 654.358C1035.17 653.715 1039.13 652.817 1042.97 651.277C1043.42 651.089 1043.61 651.211 1043.8 651.596C1044 651.981 1044.06 652.432 1043.99 652.878L1043.8 655.894C1043.8 656.279 1043.62 656.833 1043.93 656.984C1044.31 657.242 1044.57 656.664 1044.89 656.514C1046.78 654.924 1048.86 653.587 1051.1 652.536C1053.08 651.596 1055.12 650.995 1057.43 651.126C1061.72 651.385 1064.79 653.569 1066.77 657.355C1067.79 659.346 1068.23 661.526 1068.43 663.776L1068.61 668.473L1068.68 682.659C1068.74 683.748 1069.13 684.458 1070.21 684.843C1071.34 685.219 1072.5 685.499 1073.67 685.679C1074.7 685.806 1074.75 685.998 1074.82 686.961V687.281C1074.69 689.465 1074.56 689.526 1072.39 689.394C1067.61 689.137 1062.83 689.137 1058.06 689.394C1057.42 689.46 1056.78 689.394 1056.19 689.46C1055.8 689.46 1055.55 689.394 1055.49 689.009C1055.36 688.173 1055.23 687.342 1055.42 686.44C1055.49 686.055 1055.68 685.862 1056.12 685.796L1059.07 685.326C1060.1 685.068 1060.67 684.387 1060.8 683.448L1060.93 681.649L1060.86 668.233C1060.86 666.693 1060.8 665.152 1060.48 663.611C1059.71 660.323 1057.22 657.975 1053.83 657.646C1050.89 657.327 1048.22 658.097 1045.77 659.699C1044.56 660.469 1044.04 661.559 1044.04 662.907V672.602C1044.04 672.414 1044.04 672.414 1044.11 672.414L1044.02 672.287Z" fill="white"/>
<path d="M1231.35 654.118C1230.65 649.431 1228.92 645.26 1225.91 641.6C1223.3 638.368 1219.91 635.851 1216.06 634.282C1212.04 632.615 1207.75 632.098 1203.4 631.971C1201.6 631.906 1177.17 632.291 1175.38 631.971C1174.93 631.906 1174.61 632.037 1174.35 632.422C1174.03 632.892 1173.71 633.385 1173.52 633.897C1172.75 635.635 1172.75 635.504 1174.61 635.757C1176.14 636.016 1177.61 636.142 1179.08 636.593C1180.43 637.044 1181.39 637.815 1181.7 639.289C1181.83 639.994 1181.96 662.587 1181.96 673.118L1181.7 680.634C1181.64 681.212 1181.58 681.789 1181.39 682.301C1181.13 683.072 1180.68 683.711 1179.92 684.039C1179.07 684.438 1178.16 684.677 1177.23 684.744C1175.5 684.932 1175.25 685.002 1174.67 686.928L1174.48 687.633C1174.36 688.469 1174.42 688.596 1175.25 688.596L1194.37 688.784L1201.86 688.657L1207.04 688.013C1212.93 686.923 1218.17 684.481 1222.65 680.568C1225.2 678.303 1227.29 675.554 1228.79 672.48C1230.58 668.886 1231.35 664.964 1231.54 660.99C1231.86 658.745 1231.73 656.434 1231.35 654.123V654.118ZM1222.08 663.231C1221.82 667.341 1220.99 671.319 1218.88 674.913C1216.19 679.601 1212.36 682.874 1207.05 684.025C1204.75 684.495 1202.44 684.73 1200.03 684.41C1198.3 684.223 1196.64 684.025 1195.04 683.448C1192.16 682.414 1191.14 680.629 1191.07 677.811L1191.01 639.106C1191.01 636.795 1192.04 636.288 1193.7 636.218C1196.19 636.03 1198.75 636.091 1201.24 636.344C1203.9 636.602 1206.51 637.235 1208.99 638.223C1210.83 638.994 1212.53 640.056 1214.04 641.37C1217.49 644.33 1219.8 648.04 1221.06 652.409C1222.09 655.941 1222.28 659.534 1222.09 663.128L1222.08 663.231ZM1284.51 669.525C1284.51 669.14 1284.51 668.821 1284.44 668.435C1283.87 664.903 1282.01 662.207 1279.14 660.154C1277.28 658.806 1275.17 657.909 1273 657.266C1272.61 657.139 1272.29 657.007 1271.91 656.946C1271.98 656.627 1272.17 656.561 1272.36 656.495C1273.64 655.852 1274.85 655.147 1275.94 654.184C1277.92 652.517 1279.22 650.459 1279.9 647.956C1280.29 646.608 1280.29 645.26 1280.16 643.846C1280.06 642.192 1279.58 640.583 1278.77 639.138C1277.97 637.693 1276.84 636.449 1275.49 635.499C1272.54 633.315 1269.09 632.418 1265.51 632.352C1258.6 632.225 1251.64 632.352 1244.73 632.352C1242.75 632.352 1240.77 632.479 1238.72 632.164C1238.33 632.098 1237.78 631.976 1237.5 632.422C1237.03 633.258 1236.47 634.09 1236.28 635.053C1236.22 635.504 1236.35 635.757 1236.86 635.823L1241.27 636.466C1243.01 636.725 1244.22 637.688 1244.34 639.228C1244.47 640.293 1244.53 641.364 1244.53 642.437L1244.4 654.438L1244.34 678.187C1244.34 679.596 1244.15 680.949 1243.89 682.358C1243.83 682.805 1243.64 683.225 1243.34 683.566C1243.05 683.908 1242.66 684.157 1242.23 684.284C1240.95 684.669 1239.73 685.054 1238.39 685.054C1238.03 685.02 1237.67 685.109 1237.37 685.307C1237.07 685.505 1236.84 685.8 1236.73 686.144C1236.47 686.721 1236.26 687.365 1236.15 687.943C1236.03 688.713 1236.22 688.976 1236.99 688.882C1237.56 688.816 1258.67 689.333 1262.63 688.948C1265 688.69 1267.31 688.37 1269.67 687.666C1273.69 686.383 1277.41 684.519 1280.35 681.371C1282.78 678.802 1284.19 675.721 1284.31 672.127C1284.5 671.291 1284.5 670.46 1284.5 669.558L1284.51 669.525ZM1253.49 643.221L1253.68 638.087C1253.68 637.124 1254.06 636.678 1255.02 636.481C1256.55 636.161 1258.09 636.293 1259.62 636.354C1261.16 636.481 1262.63 636.673 1264.16 637.124C1266.97 637.96 1269.15 639.567 1270.44 642.258C1271.02 643.482 1271.32 644.82 1271.33 646.176C1271.4 647.975 1271.26 649.708 1270.56 651.436C1269.48 653.813 1267.75 655.354 1265.25 655.805C1262.76 656.256 1255.66 656.063 1254.57 656.063C1253.62 656.063 1253.55 655.936 1253.55 654.973V648.928C1253.39 647.048 1253.37 645.16 1253.48 643.277L1253.49 643.221ZM1274.27 677.755C1273.18 680.643 1271.2 682.64 1268.39 683.72C1266.85 684.298 1265.32 684.659 1263.71 684.556C1261.72 684.49 1259.74 684.556 1257.76 684.171C1255.08 683.593 1253.86 681.024 1253.67 679.164C1253.35 675.89 1253.54 672.55 1253.48 670.112V661.639C1253.48 660.605 1253.61 660.291 1254.7 660.291L1260.71 660.356L1264.81 660.826C1267.68 661.469 1270.3 662.564 1272.35 664.804C1274.02 666.603 1274.91 668.783 1275.11 671.16C1275.29 673.405 1275.17 675.589 1274.34 677.708L1274.27 677.755Z" fill="white"/>
<path d="M1111.76 658.417L1113.42 658.675C1115.21 658.741 1117.32 658.097 1117.96 655.594C1118.31 654.398 1118.31 653.126 1117.96 651.93C1117.58 651.93 1117.39 652.249 1117.19 652.381C1116.23 653.151 1115.15 653.602 1114 653.729C1111.69 653.987 1109.39 653.856 1107.15 653.024L1104.02 651.935C1101.83 651.216 1099.53 650.913 1097.23 651.042C1093.97 651.301 1090.9 652.39 1088.02 653.931C1084.95 655.598 1082.78 658.102 1081.75 661.507C1081.18 663.499 1081.11 665.547 1081.37 667.604C1082.01 672.292 1084.44 675.566 1088.79 677.299C1089.04 677.365 1089.23 677.487 1089.49 677.558C1090.06 677.877 1090.13 678.201 1089.61 678.647L1088.01 679.737L1084.18 682.114C1083.22 682.692 1083.09 683.147 1083.41 684.167C1083.79 685.366 1084.5 686.433 1085.45 687.248C1086.33 688.004 1087.32 688.611 1088.4 689.047C1089.1 689.366 1089.1 689.517 1088.46 690.08L1084.81 692.711C1083.59 693.65 1082.38 694.59 1081.36 695.792C1080.65 696.554 1080.14 697.48 1079.87 698.488C1079.6 699.496 1079.59 700.554 1079.82 701.57C1080.3 703.798 1081.46 705.819 1083.15 707.347C1084.81 708.893 1086.83 709.996 1089.03 710.555C1092.61 711.589 1096.32 711.645 1099.97 710.94C1105.21 709.978 1109.79 707.652 1113.4 703.688C1115.89 701.058 1117.36 697.976 1117.49 694.294C1117.63 692.164 1117.02 690.053 1115.75 688.338C1114.49 686.622 1112.66 685.412 1110.59 684.923L1107.13 684.279L1096.58 683.34C1095.43 683.274 1094.27 683.082 1093.32 682.504C1092.1 681.733 1091.78 680.259 1092.55 679.296C1093.12 678.591 1093.83 678.14 1094.72 678.074L1096.77 677.886C1100.81 677.474 1104.61 675.737 1107.58 672.945C1109.16 671.475 1110.29 669.581 1110.84 667.487C1111.61 664.725 1111.61 661.85 1110.96 659.032C1110.78 658.327 1110.84 658.262 1111.73 658.389L1111.76 658.417ZM1096.08 690.39C1096.47 690.456 1096.85 690.39 1097.23 690.39C1099.92 690.517 1102.67 690.71 1105.29 691.424C1106.15 691.678 1106.98 692 1107.79 692.387C1110.35 693.796 1111.31 696.238 1110.98 698.869C1110.6 701.758 1109 703.81 1106.5 705.163C1104.84 706.102 1102.98 706.511 1101.07 706.704C1100.36 706.769 1099.72 706.704 1099.02 706.704C1096.78 706.769 1094.61 706.516 1092.5 705.614C1091.03 705.036 1089.81 704.205 1088.72 703.045C1086.49 700.799 1085.45 696.689 1088.79 693.35C1090.84 691.471 1093.14 690.141 1096.08 690.39V690.39ZM1103.37 670.362C1102.03 673.762 1099.09 674.791 1096.15 674.34C1093.46 673.955 1091.48 672.48 1090.2 670.038C1088.54 666.764 1088.1 663.368 1089.05 659.831C1089.75 657.2 1091.35 655.209 1094.17 654.758C1097.75 654.114 1101.19 655.401 1102.99 658.994C1103.93 660.732 1104.34 662.846 1104.34 665.862C1104.27 667.083 1104.02 668.75 1103.38 670.357L1103.37 670.362ZM1022.79 665.993C1022.21 662.527 1020.94 659.38 1018.57 656.749C1015.05 652.832 1010.58 651.113 1005.52 651.099C1001.11 651.033 996.956 652.32 993.24 654.631C989.587 656.825 986.909 660.339 985.756 664.453C984.67 668.177 984.727 671.968 985.569 675.749C987.806 685.895 995.613 690.254 1004.94 689.615C1007.7 689.427 1010.32 688.526 1012.81 687.304C1016.52 685.566 1019.21 682.809 1021.06 679.15C1022.53 676.134 1023.16 672.922 1023.1 669.262L1022.79 665.989L1022.79 665.993ZM1013.71 680.244C1013.25 681.689 1012.39 682.968 1011.22 683.926C1010.05 684.883 1008.62 685.478 1007.12 685.637C1004.31 686.022 1001.68 685.317 999.319 683.645C997.613 682.386 996.231 680.735 995.29 678.831C992.669 673.438 992.22 667.792 993.558 662.015C993.989 660.227 994.921 658.6 996.244 657.327C998.613 655.143 1001.36 654.631 1004.43 655.274C1007.38 655.918 1009.62 657.52 1011.45 659.962C1013.29 662.405 1014.14 665.223 1014.65 668.182C1014.91 669.657 1014.91 671.198 1014.97 672.161C1014.97 675.242 1014.71 677.797 1013.75 680.249L1013.71 680.244ZM1162.54 666.51C1162.07 662.785 1160.69 659.384 1158.06 656.561C1154.61 652.775 1150.13 651.169 1145.14 651.103C1140.86 651.037 1136.89 652.259 1133.25 654.377C1129.15 656.82 1126.34 660.281 1125.25 664.969C1123.96 670.084 1124.5 675.493 1126.79 680.244C1128.89 684.74 1132.48 687.628 1137.22 688.911C1142.46 690.32 1147.45 689.681 1152.31 687.304C1156.53 685.252 1159.53 682.043 1161.26 677.675C1162.29 675.106 1162.67 672.349 1162.73 669.136C1162.8 668.558 1162.67 667.529 1162.54 666.505L1162.54 666.51ZM1153.71 679.413C1152.68 682.88 1150.52 685.125 1146.87 685.642C1144.18 686.027 1141.63 685.383 1139.32 683.843C1137.34 682.494 1135.93 680.695 1134.91 678.582C1133.76 676.336 1133.12 673.96 1132.86 671.522C1132.48 668.506 1132.48 665.556 1133.18 662.536C1133.31 661.941 1133.51 661.36 1133.76 660.803C1135.55 656.308 1139.51 654.255 1144.18 655.284C1147.32 655.988 1149.68 657.726 1151.48 660.357C1153.21 662.926 1154.04 665.749 1154.42 668.812C1154.61 670.033 1154.68 671.315 1154.61 672.405C1154.61 674.908 1154.42 677.22 1153.68 679.465L1153.71 679.413Z" fill="white"/>
<path d="M1276.43 397.681C1275.18 397.681 1273.97 397.936 1272.9 398.54L1239.05 418.017C1236.86 419.274 1235.53 421.65 1235.53 424.176V463.062C1235.53 465.587 1236.86 467.959 1239.05 469.22L1247.89 474.296C1252.19 476.406 1253.77 476.372 1255.73 476.372C1262.09 476.372 1265.72 472.527 1265.72 465.845V427.482C1265.72 426.939 1265.25 426.551 1264.71 426.551H1260.47C1259.93 426.551 1259.47 426.949 1259.47 427.482V465.865C1259.47 468.827 1256.37 471.807 1251.34 469.302L1242.15 463.932C1241.83 463.756 1241.58 463.434 1241.58 463.073V424.187C1241.58 423.819 1241.83 423.443 1242.15 423.257L1275.93 403.848C1276.25 403.667 1276.63 403.667 1276.94 403.848L1310.72 423.257C1311.04 423.449 1311.3 423.807 1311.3 424.187V463.073C1311.3 463.444 1311.11 463.824 1310.79 464.004L1276.94 483.412C1276.64 483.584 1276.24 483.584 1275.94 483.412L1267.24 478.256C1266.98 478.105 1266.63 478.117 1266.38 478.256C1263.98 479.612 1263.52 479.769 1261.27 480.547C1260.72 480.739 1259.88 481.039 1261.56 481.98L1272.92 488.649C1274 489.272 1275.2 489.579 1276.44 489.579C1277.69 489.579 1278.88 489.281 1279.96 488.649L1313.81 469.241C1316 467.971 1317.34 465.608 1317.34 463.083V424.197C1317.34 421.671 1316 419.3 1313.81 418.038L1279.96 398.561C1278.9 397.957 1277.68 397.702 1276.44 397.702L1276.43 397.681ZM1285.48 425.467C1275.84 425.467 1270.1 429.555 1270.1 436.352C1270.1 443.717 1275.8 445.751 1285.05 446.663C1296.12 447.743 1296.98 449.362 1296.98 451.533C1296.98 455.298 1293.97 456.903 1286.85 456.903C1277.9 456.903 1275.94 454.678 1275.28 450.235C1275.2 449.759 1274.83 449.376 1274.34 449.376H1269.95C1269.68 449.382 1269.43 449.489 1269.24 449.676C1269.06 449.863 1268.95 450.114 1268.94 450.378C1268.94 456.054 1272.04 462.766 1286.84 462.766C1297.55 462.766 1303.73 458.586 1303.73 451.237C1303.73 443.971 1298.74 442.008 1288.35 440.637C1277.86 439.244 1276.85 438.577 1276.85 436.126C1276.85 434.103 1277.7 431.398 1285.47 431.398C1292.42 431.398 1294.99 432.891 1296.04 437.557C1296.13 437.995 1296.52 438.353 1296.97 438.353H1301.37C1301.64 438.353 1301.9 438.188 1302.09 437.995C1302.27 437.789 1302.4 437.557 1302.38 437.278C1301.7 429.242 1296.32 425.462 1285.49 425.462L1285.48 425.467Z" fill="white"/>
<path d="M1077.41 346.705C1077.03 346.706 1076.66 346.804 1076.33 346.992C1076.01 347.182 1075.74 347.454 1075.55 347.78C1075.36 348.107 1075.26 348.477 1075.26 348.854V403.636C1075.26 404.174 1075 404.656 1074.54 404.925C1074.31 405.058 1074.05 405.128 1073.78 405.128C1073.52 405.128 1073.26 405.058 1073.03 404.925L1064.04 399.77C1063.39 399.392 1062.64 399.193 1061.89 399.193C1061.13 399.193 1060.39 399.392 1059.73 399.77L1023.87 420.393C1022.53 421.163 1021.71 422.646 1021.71 424.188V465.436C1021.71 466.191 1021.91 466.932 1022.29 467.586C1022.67 468.24 1023.21 468.782 1023.87 469.159L1059.73 489.783C1060.39 490.162 1061.13 490.362 1061.89 490.362C1062.64 490.362 1063.39 490.162 1064.04 489.783L1099.91 469.159C1100.56 468.782 1101.11 468.24 1101.49 467.586C1101.87 466.932 1102.07 466.191 1102.06 465.436V362.603C1102.06 361.038 1101.21 359.57 1099.84 358.808L1078.49 346.919C1078.16 346.733 1077.78 346.7 1077.41 346.704V346.705ZM846.702 398.193C846.017 398.221 845.375 398.339 844.761 398.695L808.898 419.318C808.241 419.694 807.695 420.237 807.316 420.891C806.938 421.544 806.74 422.287 806.742 423.041L806.815 478.398C806.815 479.169 807.214 479.883 807.894 480.259C808.56 480.658 809.386 480.658 810.049 480.259L831.323 468.085C832.672 467.289 833.551 465.899 833.551 464.363V438.51C833.551 436.967 834.365 435.554 835.708 434.788L844.765 429.561C845.419 429.181 846.163 428.983 846.92 428.987C847.678 428.983 848.423 429.181 849.077 429.561L858.129 434.785C859.471 435.551 860.285 436.967 860.285 438.507V464.359C860.285 465.898 861.184 467.295 862.512 468.081L883.786 480.255C884.456 480.654 885.28 480.654 885.942 480.255C886.601 479.877 887.021 479.164 887.021 478.394L887.093 423.039C887.097 422.284 886.9 421.541 886.521 420.887C886.142 420.233 885.596 419.691 884.937 419.316L849.074 398.694C848.468 398.339 847.822 398.22 847.133 398.192H846.704L846.702 398.193ZM1168.98 398.695C1168.22 398.693 1167.48 398.89 1166.82 399.268L1130.96 419.892C1129.62 420.664 1128.8 422.074 1128.8 423.615V464.862C1128.8 466.413 1129.68 467.818 1131.03 468.585L1166.6 488.789C1167.92 489.536 1169.52 489.592 1170.84 488.859L1192.4 476.899C1193.09 476.521 1193.55 475.815 1193.55 475.038C1193.56 474.262 1193.15 473.563 1192.47 473.177L1156.39 452.553C1155.72 452.169 1155.24 451.391 1155.24 450.619V437.721C1155.24 436.951 1155.72 436.244 1156.39 435.86L1167.61 429.414C1168.27 429.03 1169.09 429.03 1169.76 429.414L1180.98 435.86C1181.31 436.048 1181.58 436.319 1181.77 436.646C1181.96 436.973 1182.06 437.344 1182.06 437.721V447.89C1182.06 448.267 1182.16 448.638 1182.35 448.965C1182.53 449.292 1182.81 449.563 1183.14 449.751C1183.81 450.137 1184.62 450.139 1185.29 449.751L1206.78 437.293C1208.12 436.521 1208.94 435.106 1208.94 433.571V423.618C1208.94 422.863 1208.74 422.122 1208.36 421.468C1207.98 420.815 1207.44 420.272 1206.78 419.894L1171.13 399.27C1170.48 398.892 1169.74 398.694 1168.98 398.697L1168.98 398.695ZM1061.74 429.489C1061.94 429.488 1062.14 429.537 1062.32 429.631L1074.61 436.721C1074.94 436.913 1075.18 437.268 1075.18 437.651V451.83C1075.18 452.215 1074.94 452.57 1074.61 452.761L1062.32 459.85C1061.98 460.039 1061.58 460.039 1061.24 459.85L1048.95 452.761C1048.62 452.569 1048.37 452.213 1048.37 451.83V437.649C1048.37 437.265 1048.62 436.913 1048.95 436.719L1061.24 429.63C1061.41 429.534 1061.56 429.488 1061.74 429.488V429.487V429.489Z" fill="white"/>
<path d="M954.439 398.479C953.682 398.478 952.937 398.675 952.281 399.052L916.417 419.605C915.077 420.375 914.261 421.859 914.261 423.4V464.648C914.259 465.402 914.458 466.144 914.836 466.798C915.215 467.452 915.76 467.994 916.417 468.37L952.281 488.994C952.936 489.373 953.68 489.573 954.438 489.573C955.195 489.573 955.939 489.373 956.594 488.994L992.458 468.37C993.114 467.993 993.659 467.451 994.038 466.797C994.417 466.143 994.616 465.401 994.615 464.647V423.399C994.615 421.856 993.799 420.373 992.457 419.604L956.593 399.051C955.937 398.673 955.193 398.475 954.435 398.478L954.439 398.479ZM1168.91 435.288C1168.76 435.288 1168.61 435.288 1168.48 435.357L1161.58 439.368C1161.45 439.44 1161.34 439.543 1161.26 439.669C1161.19 439.794 1161.15 439.938 1161.14 440.084V447.962C1161.14 448.258 1161.32 448.529 1161.58 448.678L1168.48 452.617C1168.59 452.69 1168.73 452.729 1168.87 452.729C1169.01 452.729 1169.15 452.69 1169.26 452.617L1176.16 448.678C1176.42 448.532 1176.6 448.258 1176.6 447.962V440.084C1176.6 439.787 1176.42 439.517 1176.16 439.367L1169.26 435.356C1169.14 435.281 1169.05 435.287 1168.9 435.287L1168.91 435.288Z" fill="white"/>
</g>
<defs>
<filter id="filter0_d_291_28" x="-20" y="-16" width="1738.67" height="1120" filterUnits="userSpaceOnUse" color-interpolation-filters="sRGB">
<feFlood flood-opacity="0" result="BackgroundImageFix"/>
<feColorMatrix in="SourceAlpha" type="matrix" values="0 0 0 0 0 0 0 0 0 0 0 0 0 0 0 0 0 0 127 0" result="hardAlpha"/>
<feOffset dy="4"/>
<feGaussianBlur stdDeviation="10"/>
<feComposite in2="hardAlpha" operator="out"/>
<feColorMatrix type="matrix" values="0 0 0 0 0 0 0 0 0 0.111333 0 0 0 0 0.695833 0 0 0 0.05 0"/>
<feBlend mode="normal" in2="BackgroundImageFix" result="effect1_dropShadow_291_28"/>
<feBlend mode="normal" in="SourceGraphic" in2="effect1_dropShadow_291_28" result="shape"/>
</filter>
<clipPath id="clip0_291_28">
<rect width="1698" height="1080" fill="white"/>
</clipPath>
<clipPath id="clip1_291_28">
<rect width="305" height="407" fill="white" transform="translate(361 334)"/>
</clipPath>
</defs>
</svg>
