<svg width="1536" height="763" viewBox="0 0 1536 763" fill="none" xmlns="http://www.w3.org/2000/svg">
<path d="M1205.5 -48.5H1572V314.5L1552 321L1205.5 -48.5Z" fill="#999999"/>
<path d="M800 548L1572 314.5V810L800 548Z" fill="url(#paint0_linear)"/>
<path d="M1552 321L800 548L1205.5 -48.5L1552 321Z" fill="url(#paint1_linear)"/>
<path d="M1577.87 812L800 548L668.5 812H1577.87Z" fill="#949494"/>
<path d="M1205.5 -48.5L800 548L237.5 289.5L1049 -48.5H1205.5Z" fill="url(#paint2_linear)"/>
<path d="M1049 -48.5L237.5 289.5L501 -48.5H1049Z" fill="url(#paint3_linear)"/>
<path d="M800 548L237.5 289.5L438.5 812H668.5L800 548Z" fill="url(#paint4_linear)"/>
<path d="M438.5 812L237.5 289.5L-41.5 520V812H438.5Z" fill="url(#paint5_linear)"/>
<path d="M-41.5 520L237.5 289.5L-41.5 228V520Z" fill="url(#paint6_linear)"/>
<path d="M501 -48.5L237.5 289.5L-42 -48.5H501Z" fill="url(#paint7_linear)"/>
<path d="M-41.5 -49L237.5 289.5L-41.5 228V-49Z" fill="url(#paint8_linear)"/>
<defs>
<linearGradient id="paint0_linear" x1="1320.5" y1="334.5" x2="1270.5" y2="687.5" gradientUnits="userSpaceOnUse">
<stop stop-color="#C4C4C4"/>
<stop offset="1" stop-color="#D1D1D1"/>
</linearGradient>
<linearGradient id="paint1_linear" x1="1320.5" y1="273" x2="766" y2="378" gradientUnits="userSpaceOnUse">
<stop stop-color="#B1B1B1"/>
<stop offset="1" stop-color="#939393"/>
</linearGradient>
<linearGradient id="paint2_linear" x1="615" y1="97.0001" x2="801" y2="548" gradientUnits="userSpaceOnUse">
<stop stop-color="#DBDBDB"/>
<stop offset="1" stop-color="#C9C9C9"/>
</linearGradient>
<linearGradient id="paint3_linear" x1="238" y1="192.5" x2="790.5" y2="71.0001" gradientUnits="userSpaceOnUse">
<stop stop-color="#9B9B9B"/>
<stop offset="1" stop-color="#C4C4C4"/>
</linearGradient>
<linearGradient id="paint4_linear" x1="360" y1="226.5" x2="672" y2="772" gradientUnits="userSpaceOnUse">
<stop stop-color="#848484"/>
<stop offset="1" stop-color="#9D9D9D"/>
</linearGradient>
<linearGradient id="paint5_linear" x1="209.5" y1="289.5" x2="301.5" y2="776.5" gradientUnits="userSpaceOnUse">
<stop stop-color="#8B8B8B"/>
<stop offset="1" stop-color="#A0A0A0"/>
</linearGradient>
<linearGradient id="paint6_linear" x1="-16" y1="441.5" x2="211" y2="235" gradientUnits="userSpaceOnUse">
<stop stop-color="#C4C4C4"/>
<stop offset="1" stop-color="#D0D0D0"/>
</linearGradient>
<linearGradient id="paint7_linear" x1="267" y1="290" x2="203" y2="-61.5" gradientUnits="userSpaceOnUse">
<stop stop-color="#BBBBBB"/>
<stop offset="1" stop-color="#E3E3E3"/>
</linearGradient>
<linearGradient id="paint8_linear" x1="124" y1="329" x2="-80.5" y2="-3.49998" gradientUnits="userSpaceOnUse">
<stop stop-color="#828282"/>
<stop offset="1" stop-color="#BEBEBE"/>
</linearGradient>
</defs>
</svg>
