<svg width="30" height="24" viewBox="0 0 30 24" fill="none" xmlns="http://www.w3.org/2000/svg">
<path d="M29 8.00317V20C29 21.6569 27.6569 23 26 23H4C2.34315 23 1 21.6569 1 20V8.00317C1 6.34632 2.34315 5.00317 4 5.00317H6.27428C7.932 5.00317 9.27586 3.65931 9.27586 2.00158C9.27586 1.44842 9.72428 1 10.2774 1H19.7225C20.2757 1 20.7241 1.44842 20.7241 2.00158C20.7241 3.65931 22.068 5.00317 23.7257 5.00317H26C27.6569 5.00317 29 6.34632 29 8.00317Z" stroke="#00BABA" stroke-width="2"/>
<path d="M21 13C21 16.3137 18.3137 19 15 19C11.6863 19 9 16.3137 9 13C9 9.68629 11.6863 7 15 7C18.3137 7 21 9.68629 21 13Z" stroke="#00BABA" stroke-width="2"/>
</svg>
