<svg width="160" height="120" viewBox="0 0 160 120" fill="none" xmlns="http://www.w3.org/2000/svg">
<path d="M27.4375 26L33.0953 89.9L58.5 97L83.8958 89.9044L89.5625 26H27.4375Z" fill="#239EFF"/>
<path d="M77.4659 46.8962L76.7514 54.9236L74.5948 78.9882L58.5 83.439L58.4867 83.4434L42.4007 78.9882L41.278 66.4034H49.159L49.7448 72.931L58.4911 75.2917L58.4955 75.2873L67.2552 72.9266L68.4489 62.0502L40.9009 62.1257L40.1199 54.6884L69.11 54.3467L69.6958 46.3859L39.3433 46.4702L38.833 39.064H58.5H78.167L77.4659 46.8962Z" fill="#FAFAFA"/>
<path d="M142.262 76.3198C139.57 76.335 137.239 76.9843 135.284 77.9512C134.562 76.5163 133.84 75.2625 133.72 74.3262C133.585 73.2387 133.419 72.5739 133.585 71.2751C133.75 69.976 134.502 68.1333 134.502 67.9823C134.487 67.8463 134.336 67.1817 132.787 67.1666C131.239 67.1515 129.9 67.4687 129.75 67.8765C129.599 68.2843 129.298 69.2208 129.103 70.1875C128.832 71.6073 126.005 76.6369 124.396 79.2802C123.869 78.2531 123.418 77.3468 123.328 76.6217C123.193 75.5343 123.027 74.8696 123.193 73.5708C123.358 72.2717 124.11 70.4291 124.11 70.2781C124.095 70.1422 123.944 69.4776 122.396 69.4625C120.846 69.4474 119.508 69.7646 119.358 70.1724C119.207 70.5802 119.042 71.5468 118.711 72.4833C118.395 73.4198 114.635 81.8177 113.658 84.0078C113.161 85.1255 112.725 86.0166 112.41 86.6208C112.094 87.225 112.394 86.6661 112.364 86.7265C112.094 87.2401 111.943 87.5271 111.943 87.5271V87.5423C111.733 87.9199 111.507 88.2823 111.402 88.2823C111.327 88.2823 111.176 87.2703 111.432 85.8809C111.988 82.9656 113.342 78.4194 113.327 78.2532C113.327 78.1777 113.582 77.3771 112.454 76.9694C111.357 76.5616 110.966 77.2413 110.875 77.2413C110.785 77.2413 110.71 77.4829 110.71 77.4829C110.71 77.4829 111.928 72.3628 108.379 72.3628C106.153 72.3628 103.085 74.7945 101.566 77.0149C100.604 77.5435 98.5584 78.6611 96.3928 79.8544C95.5656 80.3076 94.7084 80.7909 93.8963 81.2289L93.731 81.0474C89.4298 76.4406 81.4742 73.1781 81.805 66.9854C81.9253 64.7349 82.7074 58.7989 97.0849 51.6093C108.86 45.7187 118.29 47.3349 119.929 50.9297C122.26 56.0651 114.891 65.6109 102.649 66.9854C97.9872 67.514 95.5357 65.7015 94.9192 65.0218C94.2726 64.312 94.1823 64.2817 93.9417 64.4177C93.5507 64.6291 93.7913 65.2635 93.9417 65.6411C94.3026 66.5927 95.8065 68.2843 98.3632 69.1302C100.604 69.8703 106.078 70.2781 112.695 67.7104C120.11 64.8255 125.9 56.8203 124.2 50.1291C122.471 43.3172 111.222 41.0817 100.589 44.8729C94.2574 47.1385 87.3995 50.6729 82.4667 55.3099C76.6015 60.8078 75.6691 65.6109 76.0601 67.6047C77.4288 74.7187 87.189 79.3557 91.0992 82.7843C90.9037 82.8899 90.7232 82.9957 90.5578 83.0864C88.6027 84.0529 81.1583 87.9651 79.2935 92.1035C77.188 96.7858 79.6244 100.154 81.2486 100.607C86.2716 102.012 91.415 99.4896 94.1972 95.3359C96.9642 91.1823 96.6335 85.7901 95.3552 83.3281L95.3099 83.2375L96.8439 82.3312C97.8367 81.7422 98.8142 81.1984 99.6713 80.73C99.1902 82.0441 98.8441 83.5998 98.6638 85.8654C98.4533 88.5239 99.5361 91.9675 100.965 93.3269C101.596 93.9158 102.348 93.9311 102.815 93.9311C104.469 93.9311 105.221 92.5564 106.048 90.9102C107.071 88.9014 107.973 86.5753 107.973 86.5753C107.973 86.5753 106.845 92.8738 109.928 92.8738C111.056 92.8738 112.184 91.4087 112.695 90.6535V90.6686C112.695 90.6686 112.725 90.6233 112.785 90.5175C112.849 90.4238 112.909 90.3282 112.966 90.2307V90.2005C113.417 89.4151 114.425 87.6177 115.929 84.6422C117.869 80.8057 119.734 76.0026 119.734 76.0026C119.734 76.0026 119.914 77.1807 120.47 79.114C120.801 80.2621 121.523 81.5156 122.079 82.739C121.628 83.3734 121.358 83.7361 121.358 83.7361L121.373 83.7512C121.012 84.2345 120.606 84.7482 120.185 85.2616C118.651 87.1043 116.816 89.2039 116.575 89.8081C116.29 90.5178 116.35 91.0465 116.906 91.4695C117.312 91.7716 118.034 91.8319 118.801 91.7716C120.185 91.6809 121.147 91.3336 121.628 91.122C122.38 90.8501 123.238 90.4423 124.065 89.8381C125.569 88.7206 126.486 87.1346 126.396 85.0201C126.351 83.857 125.975 82.7091 125.509 81.6216C125.644 81.4253 125.779 81.2288 125.915 81.0175C128.291 77.5282 130.126 73.6919 130.126 73.6919C130.126 73.6919 130.306 74.8701 130.862 76.8034C131.148 77.7852 131.72 78.8577 132.231 79.915C130.005 81.7426 128.607 83.8572 128.125 85.2468C127.238 87.8145 127.93 88.9775 129.238 89.2494C129.825 89.3702 130.667 89.0983 131.298 88.8265C132.08 88.5697 133.028 88.1315 133.9 87.4822C135.404 86.3645 136.848 84.8088 136.773 82.7093C136.728 81.7426 136.472 80.791 136.126 79.8848C138.021 79.0994 140.472 78.6463 143.585 79.0239C150.278 79.8093 151.601 84.0082 151.346 85.7603C151.09 87.5126 149.692 88.4791 149.225 88.7812C148.759 89.0681 148.609 89.174 148.654 89.3853C148.714 89.7027 148.924 89.6874 149.33 89.6271C149.887 89.5364 152.85 88.1922 152.97 84.9601C153.15 80.8059 149.225 76.2746 142.262 76.3198V76.3198ZM90.648 93.7953C88.4372 96.2271 85.3242 97.1484 84.0007 96.363C82.572 95.5323 83.1283 91.9526 85.8505 89.3698C87.5048 87.7989 89.6554 86.3489 91.0691 85.4578C91.3849 85.2614 91.8662 84.9746 92.4376 84.6271C92.5279 84.5668 92.588 84.5364 92.588 84.5364C92.6933 84.476 92.8136 84.4005 92.9339 84.325C93.9415 88.0104 92.979 91.2427 90.648 93.7953V93.7953ZM106.815 82.7541C106.048 84.6422 104.424 89.4906 103.446 89.2187C102.604 88.9922 102.093 85.3218 103.281 81.6968C103.882 79.8691 105.161 77.6942 105.912 76.8483C107.131 75.4889 108.454 75.0358 108.785 75.5946C109.176 76.3198 107.296 81.576 106.815 82.7541ZM120.155 89.1583C119.824 89.3246 119.523 89.4453 119.388 89.3548C119.282 89.2944 119.523 89.0678 119.523 89.0678C119.523 89.0678 121.192 87.2704 121.854 86.4397C122.23 85.9565 122.681 85.3977 123.162 84.7631V84.9444C123.162 87.1192 121.087 88.5692 120.155 89.1583ZM130.441 86.8021C130.201 86.6208 130.231 86.062 131.043 84.3099C131.359 83.6151 132.08 82.4521 133.329 81.3494C133.479 81.8026 133.569 82.2404 133.554 82.6484C133.539 85.3672 131.614 86.3791 130.441 86.8021Z" fill="#FC5DAD"/>
</svg>
