<svg width="29" height="22" viewBox="0 0 29 22" fill="none" xmlns="http://www.w3.org/2000/svg">
<path fill-rule="evenodd" clip-rule="evenodd" d="M0 3.99303C0.00455116 1.78777 1.79366 0.00146484 3.99999 0.00146484H25C27.2091 0.00146484 29 1.79233 29 4.00146V17.9474C29 17.9557 29 17.9639 28.9999 17.9721C28.9858 20.1692 27.2004 21.9459 25 21.9459H4C1.79086 21.9459 0 20.155 0 17.9459V3.99303ZM12.5032 9.81145L3.7448 1.99994H25.2552L16.4968 9.81145C15.359 10.8263 13.641 10.8263 12.5032 9.81145ZM17.8281 11.304L27 3.12367V17.9459C27 19.0504 26.1046 19.9459 25 19.9459H4C2.89543 19.9459 2 19.0504 2 17.9459V3.12367L11.1719 11.304C13.0683 12.9954 15.9317 12.9954 17.8281 11.304Z" fill="#5F6B98"/>
</svg>
