<svg width="160" height="120" viewBox="0 0 160 120" fill="none" xmlns="http://www.w3.org/2000/svg">
<path d="M139.627 57.1324L110.426 29.0277C108.745 27.4091 106.018 27.4091 104.335 29.0277L98.271 34.8641L105.963 42.2678C107.751 41.6865 109.801 42.0765 111.225 43.4479C112.657 44.8282 113.059 46.818 112.441 48.544L119.854 55.6795C121.648 55.0848 123.717 55.4695 125.149 56.8505C127.151 58.7767 127.151 61.8986 125.149 63.826C123.147 65.7537 119.903 65.7537 117.9 63.826C116.394 62.3751 116.022 60.2465 116.784 58.4609L109.871 51.8067L109.87 69.3177C110.371 69.5562 110.829 69.8712 111.225 70.2506C113.227 72.1768 113.227 75.2989 111.225 77.2278C109.223 79.1545 105.978 79.1545 103.978 77.2278C101.976 75.2989 101.976 72.177 103.978 70.2508C104.458 69.7888 105.028 69.4229 105.656 69.1743V51.5002C105.027 51.2532 104.457 50.8872 103.978 50.4237C102.461 48.9657 102.097 46.8235 102.874 45.0309L95.2911 37.7318L75.2683 57.0024C73.5858 58.6226 73.5858 61.2481 75.2683 62.867L104.47 90.9722C106.151 92.5911 108.878 92.5911 110.562 90.9722L139.627 62.9975C141.309 61.3781 141.309 58.7511 139.627 57.1324" fill="#FF5829"/>
<path d="M52.1118 27.8137C33.8902 27.8137 19.1118 42.5895 19.1118 60.8137C19.1118 75.3942 28.5663 87.7638 41.6811 92.128C43.3282 92.4333 43.8618 91.4103 43.8618 90.5412V84.3978C34.6822 86.3943 32.771 80.5038 32.771 80.5038C31.2695 76.6894 29.1052 75.6747 29.1052 75.6747C26.1105 73.626 29.3335 73.6699 29.3335 73.6699C32.6473 73.9009 34.3908 77.0718 34.3908 77.0718C37.3333 82.1152 42.1101 80.6577 43.9938 79.8135C44.2881 77.6823 45.1432 76.2247 46.0893 75.4024C38.7605 74.5638 31.055 71.734 31.055 59.0922C31.055 55.4869 32.3448 52.5445 34.454 50.2345C34.113 49.4013 32.9827 46.0435 34.7758 41.5005C34.7758 41.5005 37.5478 40.615 43.8535 44.883C46.4853 44.1515 49.3068 43.7857 52.1118 43.772C54.9168 43.7857 57.7409 44.1515 60.3783 44.883C66.6786 40.615 69.445 41.5005 69.445 41.5005C71.2408 46.0462 70.1106 49.404 69.7694 50.2345C71.887 52.5445 73.1658 55.4898 73.1658 59.0922C73.1658 71.767 65.4464 74.5582 58.0986 75.375C59.281 76.398 60.3618 78.4054 60.3618 81.4855V90.5412C60.3618 91.4185 60.8898 92.4498 62.5645 92.1252C75.6682 87.7555 85.1118 75.3888 85.1118 60.8137C85.1118 42.5895 70.336 27.8137 52.1118 27.8137Z" fill="#17204B"/>
</svg>
