<svg width="38" height="39" viewBox="0 0 38 39" fill="none" xmlns="http://www.w3.org/2000/svg">
<path d="M23.7591 32.6232V26.284C23.7591 25.4652 23.3392 23.7197 22.4389 23.0687C28.6929 22.4232 31.1902 19.1729 31.0996 13.5255C31.0996 11.7701 30.568 10.1846 29.1741 8.58105C29.754 6.75716 29.6394 5.5759 28.9663 3.55933C27.8494 3.43811 26.584 3.70264 23.7627 5.49881C20.3601 4.68494 17.7184 4.61979 14.2454 5.50352C11.4241 3.70735 10.08 3.39383 9.00485 3.5632C8.33171 5.57977 8.24698 6.77436 8.82695 8.59826C7.43302 10.2018 6.86858 11.8179 6.86858 13.5734C6.98109 19.4166 9.43878 22.2846 15.5362 23.0687C14.6359 23.7197 14.216 25.4652 14.216 26.284V26.9808M14.216 32.6232V26.9808M5.05206 22.3064C5.92678 22.5289 7.86914 23.7005 9.16076 25.8795C10.4058 27.98 12.5646 27.8034 14.216 26.9808" stroke="#5F6B98" stroke-width="2" stroke-linecap="round" stroke-linejoin="round"/>
</svg>
