<svg width="160" height="120" viewBox="0 0 160 120" fill="none" xmlns="http://www.w3.org/2000/svg">
<path d="M46.1354 20C45.4001 20 44.8522 20.5992 44.9176 21.3314L51.1162 90.8596C51.1815 91.592 51.8143 92.3521 52.5231 92.5489L78.827 99.8523C79.5356 100.049 80.6948 100.049 81.4036 99.8528L107.787 92.5373C108.496 92.3407 109.13 91.5807 109.195 90.8485L115.404 21.3314C115.47 20.5992 114.921 20 114.186 20H46.1354ZM102.203 35.946C102.144 36.5992 102.043 37.7331 101.978 38.4654L101.814 40.2896C101.749 41.0217 101.655 42.0687 101.606 42.6161C101.556 43.1636 101.51 43.6115 101.501 43.6115C101.493 43.6115 100.884 43.6115 100.149 43.6115H81.4975C80.7621 43.6115 80.1545 43.6115 80.1465 43.6115C80.1385 43.6115 79.5303 43.6115 78.7949 43.6115H68.9718C68.2364 43.6115 67.6886 44.2108 67.7539 44.943L68.3269 51.3477C68.3922 52.0797 69.0475 52.6791 69.7827 52.6791H78.7951C79.5304 52.6791 80.1385 52.6791 80.1467 52.6791C80.1548 52.6791 80.7625 52.6791 81.4976 52.6791H96.9886C97.724 52.6791 98.8618 52.6791 99.5171 52.6791C100.172 52.6791 100.66 53.2136 100.6 53.8668C100.541 54.5199 100.439 55.6541 100.374 56.3861L98.5312 77.0347C98.4654 77.7671 98.3822 78.7025 98.3465 79.1138C98.3099 79.5247 97.7005 80.0218 96.9919 80.2183L81.449 84.528C80.7404 84.7243 80.1518 84.8868 80.1407 84.8893C80.1298 84.8916 79.5414 84.7326 78.8324 84.5362L63.273 80.2186C62.5644 80.0221 61.9313 79.2621 61.8661 78.5297L60.8645 67.2882C60.7992 66.5559 61.3477 65.9567 62.083 65.9567H63.503C64.2383 65.9567 65.4414 65.9567 66.1766 65.9567H68.2941C69.0294 65.9567 69.6841 66.5559 69.7499 67.2882L70.1427 71.6889C70.208 72.4212 70.8419 73.177 71.5519 73.3688L78.8299 75.3342C79.5395 75.5259 80.1229 75.6828 80.1262 75.6828C80.1295 75.6828 80.7126 75.5256 81.4225 75.3339L88.7136 73.3637C89.4231 73.172 90.0577 72.4159 90.1234 71.6839L90.9141 62.8671C90.9799 62.1348 90.432 61.5356 89.6967 61.5356H81.4976C80.7623 61.5356 80.1546 61.5356 80.1467 61.5356C80.1387 61.5356 79.5304 61.5356 78.7951 61.5356H61.6866C60.9512 61.5356 60.2966 60.9362 60.2312 60.2041L58.2912 38.4656C58.2259 37.7332 58.1247 36.5996 58.0661 35.9462C58.0081 35.2931 58.5617 34.7585 59.297 34.7585H78.7951C79.5304 34.7585 80.1385 34.7585 80.1467 34.7585C80.1548 34.7585 80.7625 34.7585 81.4976 34.7585H100.972C101.707 34.7582 102.261 35.2926 102.203 35.946Z" fill="#FF5829"/>
</svg>
