<svg width="160" height="120" viewBox="0 0 160 120" fill="none" xmlns="http://www.w3.org/2000/svg">
<path d="M38 23H121V105H38V23Z" fill="#FFDE00"/>
<path d="M114.207 85.4432C113.599 81.7017 111.13 78.5605 103.816 75.6297C101.276 74.4761 98.4433 73.6499 97.5991 71.7479C97.2993 70.6411 97.2598 70.0175 97.4492 69.3472C97.9936 67.1724 100.621 66.4943 102.704 67.1179C104.045 67.5622 105.315 68.5834 106.081 70.2124C109.662 67.9208 109.655 67.9363 112.156 66.3619C111.24 64.9588 110.751 64.3118 110.152 63.7117C107.998 61.3343 105.063 60.1105 100.368 60.2041C99.5557 60.3054 98.7353 60.4145 97.9226 60.5159C95.5794 61.1005 93.3465 62.3164 92.0368 63.9455C88.1077 68.3495 89.2281 76.0584 94.0093 79.2309C98.7194 82.7229 105.639 83.518 106.522 86.7839C107.382 90.7826 103.548 92.0765 99.7372 91.6166C96.9285 91.0398 95.3664 89.629 93.6779 87.0645C90.5694 88.8417 90.5694 88.8417 87.3741 90.6579C88.1315 92.2948 88.9283 93.0353 90.1986 94.4539C96.2106 100.479 111.256 100.183 113.955 91.0632C114.065 90.7514 114.791 88.6624 114.207 85.4432V85.4432ZM83.1214 60.6873H75.3579C75.3579 67.3128 75.3265 73.8915 75.3265 80.5169C75.3265 84.7339 75.5474 88.6 74.8531 89.7848C73.7169 92.1153 70.7741 91.827 69.4328 91.3748C68.0679 90.7123 67.3736 89.7691 66.5688 88.4363C66.3479 88.0544 66.1822 87.7582 66.1269 87.7348C64.0205 89.0053 61.9217 90.2836 59.8152 91.5542C60.8646 93.6822 62.4109 95.5295 64.3912 96.7298C67.3499 98.4836 71.3263 99.0214 75.4842 98.0783C78.1904 97.2988 80.5257 95.6854 81.7486 93.2301C83.5159 90.0109 83.1372 86.1135 83.1214 81.8031C83.1609 74.7723 83.1214 67.7415 83.1214 60.6873Z" fill="#323330"/>
</svg>
