<svg width="160" height="120" viewBox="0 0 160 120" fill="none" xmlns="http://www.w3.org/2000/svg">
<path d="M79.2156 18.2448L81.6441 22.756C82.1901 23.5885 82.7816 24.3254 83.4783 25.0116C85.5116 27.0226 87.4425 29.1291 89.1772 31.3847C93.2921 36.7285 96.0676 42.6629 98.0497 49.081C99.2384 53.0016 99.8839 57.0235 99.9323 61.0904C100.131 73.2488 95.9169 83.6888 87.4198 92.3654C86.032 93.7379 84.5476 95.0091 82.9551 96.1397C82.1133 96.1397 81.7152 95.5013 81.3683 94.9135C80.7227 93.8363 80.3275 92.6072 80.1284 91.3838C79.8298 89.9129 79.6336 88.4419 79.7303 86.9232V86.2369C79.662 86.0907 78.9198 18.5907 79.2156 18.2448Z" fill="#3FB676"/>
<path d="M79.2156 18.0957C79.1161 17.8988 79.0166 18.0479 78.917 18.1435C78.9654 19.1279 78.6184 20.0054 78.0753 20.8435C77.4781 21.676 76.6875 22.3145 75.8941 23.0007C71.4863 26.7751 68.017 31.3342 65.2386 36.4332C61.5417 43.2957 59.6364 50.6504 59.0961 58.3932C58.8487 61.186 59.989 71.041 60.8791 73.8845C63.3077 81.4332 67.67 87.7585 73.3205 93.2485C74.7083 94.5704 76.1927 95.7967 77.7284 96.9751C78.1748 96.9751 78.2232 96.5814 78.3255 96.2889C78.5213 95.663 78.6705 95.0238 78.772 94.3764L79.7673 87.0245L79.2156 18.0957Z" fill="#4BDC6B"/>
<path d="M81.6442 99.1265C81.7437 98.0015 82.2897 97.0677 82.884 96.1368C82.2869 95.8921 81.8432 95.4056 81.4963 94.8627C81.1977 94.3734 80.9503 93.7856 80.7569 93.2456C80.063 91.1868 79.9152 89.0268 79.7161 86.9231V85.649C79.4687 85.8459 79.4175 87.5109 79.4175 87.7584C79.2728 89.9819 78.9745 92.193 78.5246 94.3762C78.3767 95.2593 78.2772 96.1396 77.7283 96.9243C77.7283 97.0227 77.7283 97.1212 77.7767 97.2674C78.6696 99.8662 78.9142 102.513 79.0649 105.21V106.194C79.0649 107.37 79.0165 107.122 80.0033 107.516C80.4014 107.662 80.8451 107.713 81.2432 108.006C81.5418 108.006 81.5901 107.761 81.5901 107.564L81.4423 105.947V101.436C81.3939 100.648 81.5418 99.8662 81.6413 99.1293L81.6442 99.1265Z" fill="#BBBBBB"/>
</svg>
