<svg width="160" height="120" viewBox="0 0 160 120" fill="none" xmlns="http://www.w3.org/2000/svg">
<path d="M50.4947 42.5537H74.0709V44.4167H52.6559V58.4378H72.7938V60.3008H52.6559V75.6946H74.3165V77.5575H50.4947V42.5537ZM76.1829 42.5537H78.6879L89.7883 57.9476L101.134 42.5537L116.567 23L91.2127 59.5654L104.278 77.5575H101.675L89.7883 61.1832L77.8529 77.5575H75.2988L88.4622 59.5654L76.1829 42.5537ZM105.211 44.4167V42.5537H132.078V44.4167H119.701V77.5575H117.539V44.4167H105.211ZM21 42.5537H23.7014L60.9526 97.9718L45.5585 77.5575L23.2594 45.2011L23.1611 77.5575H21V42.5537ZM131.86 75.1324C131.419 75.1324 131.088 74.7923 131.088 74.3527C131.088 73.9132 131.419 73.5731 131.86 73.5731C132.307 73.5731 132.633 73.9132 132.633 74.3527C132.633 74.7923 132.307 75.1324 131.86 75.1324ZM133.984 73.0812H135.14C135.156 73.7039 135.613 74.1225 136.286 74.1225C137.038 74.1225 137.464 73.6725 137.464 72.8301V67.4928H138.641V72.8353C138.641 74.3527 137.758 75.2266 136.297 75.2266C134.925 75.2266 133.984 74.3789 133.984 73.0812ZM140.181 73.0132H141.348C141.448 73.7301 142.152 74.1853 143.167 74.1853C144.113 74.1853 144.807 73.6987 144.807 73.0289C144.807 72.4533 144.365 72.108 143.361 71.8725L142.384 71.637C141.012 71.3178 140.386 70.6585 140.386 69.5492C140.386 68.2044 141.49 67.3097 143.146 67.3097C144.686 67.3097 145.811 68.2044 145.879 69.476H144.733C144.623 68.78 144.013 68.3457 143.13 68.3457C142.2 68.3457 141.579 68.7905 141.579 69.4707C141.579 70.0097 141.979 70.3184 142.967 70.5486L143.803 70.7527C145.359 71.1138 146 71.7417 146 72.8772C146 74.3213 144.875 75.2266 143.077 75.2266C141.395 75.2266 140.265 74.3632 140.181 73.0132Z" fill="#17204B"/>
</svg>
