<svg width="160" height="120" viewBox="0 0 160 120" fill="none" xmlns="http://www.w3.org/2000/svg">
<path d="M80 98.9277C78.9286 98.9277 77.9286 98.6416 77 98.1409L67.5 92.4904C66.0714 91.7036 66.7857 91.4175 67.2143 91.2745C69.1429 90.6307 69.5 90.4877 71.5 89.3433C71.7143 89.2002 72 89.2718 72.2143 89.4148L79.5 93.7778C79.7857 93.9209 80.1429 93.9209 80.3571 93.7778L108.857 77.2555C109.143 77.1125 109.286 76.8264 109.286 76.4687V43.4956C109.286 43.1379 109.143 42.8518 108.857 42.7088L80.3571 26.258C80.0714 26.1149 79.7143 26.1149 79.5 26.258L51 42.7088C50.7143 42.8518 50.5714 43.2095 50.5714 43.4956V76.4687C50.5714 76.7548 50.7143 77.1125 51 77.2555L58.7857 81.7616C63 83.9074 65.6429 81.404 65.6429 78.9006V46.3566C65.6429 45.9274 66 45.4983 66.5 45.4983H70.1429C70.5714 45.4983 71 45.8559 71 46.3566V78.9006C71 84.5511 67.9286 87.8412 62.5714 87.8412C60.9286 87.8412 59.6429 87.8412 56 86.0531L48.5 81.7616C46.6429 80.6887 45.5 78.686 45.5 76.5403V43.5671C45.5 41.4213 46.6429 39.4186 48.5 38.3457L77 21.8234C78.7857 20.822 81.2143 20.822 83 21.8234L111.5 38.3457C113.357 39.4186 114.5 41.4213 114.5 43.5671V76.5403C114.5 78.686 113.357 80.6887 111.5 81.7616L83 98.2839C82.0714 98.7131 81 98.9277 80 98.9277ZM88.7857 76.2541C76.2857 76.2541 73.7143 70.5321 73.7143 65.6684C73.7143 65.2393 74.0714 64.8101 74.5714 64.8101H78.2857C78.7143 64.8101 79.0714 65.0962 79.0714 65.5254C79.6429 69.3162 81.2857 71.1759 88.8571 71.1759C94.8571 71.1759 97.4286 69.8169 97.4286 66.5982C97.4286 64.7386 96.7143 63.3796 87.3571 62.4498C79.5714 61.663 74.7143 59.9464 74.7143 53.7237C74.7143 47.9301 79.5714 44.4969 87.7143 44.4969C96.8571 44.4969 101.357 47.644 101.929 54.5105C101.929 54.725 101.857 54.9396 101.714 55.1542C101.571 55.2972 101.357 55.4403 101.143 55.4403H97.4286C97.0714 55.4403 96.7143 55.1542 96.6429 54.7966C95.7857 50.8627 93.5714 49.5752 87.7143 49.5752C81.1429 49.5752 80.3571 51.864 80.3571 53.5806C80.3571 55.6549 81.2857 56.2986 90.1429 57.443C98.9286 58.5874 103.071 60.2325 103.071 66.3837C103 72.6779 97.8571 76.2541 88.7857 76.2541Z" fill="#4DD92F"/>
</svg>
