<svg width="75" height="39" viewBox="0 0 75 39" fill="none" xmlns="http://www.w3.org/2000/svg">
<path fill-rule="evenodd" clip-rule="evenodd" d="M0.301759 23.6254C0.0960262 21.9435 0.00338853 20.6527 0 19.4562L9.68243 19.4562C9.68243 33.3535 15.2413 37.5227 23.9272 37.5227H26.0117V1.38973H23.9272C22.8505 1.38973 21.8219 1.45379 20.846 1.5925V0.0631574C21.7378 0.0203269 22.6496 0 23.5797 0H36H38.5193H51.126C63.4378 0 72.5838 3.48214 74.6944 15.3214C75.0614 18.2564 75.1404 20.0688 74.6944 23.6786C72.5838 35.5179 63.4378 39 51.126 39H36V38.9124H23.5797C11.4196 38.9124 2.38635 35.4381 0.301759 23.6254ZM37.4101 37.8848L39.5177 37.2589V1.74107L37.2634 1.07163L35.045 1.73716V37.1753L37.4101 37.8848ZM48.6636 1.39286V37.6071H50.7742C59.5684 37.6071 65.1967 33.4286 65.1967 19.5C65.1967 5.57143 59.5684 1.39286 50.7742 1.39286H48.6636Z" fill="#00BABA"/>
</svg>
