<svg width="161" height="121" viewBox="0 0 161 121" fill="none" xmlns="http://www.w3.org/2000/svg">
<path d="M125.624 60.5093C125.624 54.4853 118.08 48.7763 106.515 45.2361C109.184 33.4475 107.998 24.0685 102.772 21.0658C101.567 20.3615 100.158 20.0278 98.6202 20.0278V24.1612C99.4727 24.1612 100.158 24.328 100.733 24.6431C103.254 26.0889 104.347 31.5939 103.495 38.6745C103.291 40.4168 102.957 42.2518 102.549 44.1239C98.9167 43.2342 94.9505 42.5484 90.7805 42.1036C88.2784 38.6745 85.6837 35.5605 83.0705 32.8358C89.1124 27.2196 94.7837 24.1427 98.6387 24.1427V20.0093C93.542 20.0093 86.8699 23.6422 80.1236 29.9443C73.3774 23.6793 66.7053 20.0834 61.6086 20.0834V24.2168C65.445 24.2168 71.1348 27.2752 77.1768 32.8544C74.5821 35.5791 71.9874 38.6745 69.5224 42.1036C65.3338 42.5484 61.3676 43.2342 57.735 44.1425C57.3088 42.2889 56.9937 40.491 56.7713 38.7672C55.9002 31.6866 56.9752 26.1816 59.4772 24.7173C60.0332 24.3836 60.756 24.2354 61.6086 24.2354V20.102C60.0517 20.102 58.6432 20.4356 57.42 21.1399C52.212 24.1427 51.0444 33.5031 53.7318 45.2546C42.2039 48.8134 34.6978 54.5038 34.6978 60.5093C34.6978 66.5333 42.241 72.2422 53.8059 75.7825C51.1371 87.5711 52.3232 96.95 57.5497 99.9528C58.7544 100.657 60.1629 100.991 61.7198 100.991C66.8165 100.991 73.4886 97.3578 80.2348 91.0557C86.9811 97.3207 93.6532 100.917 98.7499 100.917C100.307 100.917 101.715 100.583 102.939 99.8786C108.146 96.8759 109.314 87.5155 106.627 75.764C118.118 72.2237 125.624 66.5148 125.624 60.5093ZM101.493 48.1461C100.807 50.5372 99.9546 53.0024 98.9908 55.4676C98.231 53.9848 97.434 52.502 96.5629 51.0191C95.7104 49.5363 94.8023 48.0905 93.8941 46.6818C96.5259 47.0711 99.065 47.553 101.493 48.1461ZM93.0045 67.8864C91.5589 70.3887 90.0762 72.7612 88.5379 74.9669C85.7764 75.2079 82.9778 75.3377 80.1607 75.3377C77.3621 75.3377 74.5636 75.2079 71.8206 74.9855C70.2823 72.7798 68.7811 70.4258 67.3355 67.942C65.9269 65.5139 64.6481 63.0486 63.4805 60.5649C64.6295 58.0811 65.9269 55.5974 67.3169 53.1692C68.7625 50.6669 70.2452 48.2944 71.7835 46.0887C74.545 45.8477 77.3436 45.718 80.1607 45.718C82.9593 45.718 85.7579 45.8477 88.5008 46.0701C90.0391 48.2759 91.5403 50.6299 92.986 53.1136C94.3945 55.5418 95.6733 58.007 96.841 60.4907C95.6733 62.9745 94.3945 65.4582 93.0045 67.8864ZM98.9908 65.4768C99.9917 67.9605 100.844 70.4443 101.548 72.8539C99.1206 73.447 96.5629 73.9475 93.9126 74.3367C94.8208 72.9095 95.7289 71.4452 96.5815 69.9438C97.434 68.461 98.231 66.9596 98.9908 65.4768ZM80.1978 85.2541C78.4741 83.4747 76.7505 81.4914 75.0454 79.3228C76.7135 79.3969 78.4185 79.4525 80.1422 79.4525C81.8843 79.4525 83.608 79.4155 85.2945 79.3228C83.6265 81.4914 81.9029 83.4747 80.1978 85.2541ZM66.4088 74.3367C63.777 73.9475 61.2379 73.4656 58.81 72.8724C59.4957 70.4814 60.3483 68.0161 61.312 65.5509C62.0719 67.0338 62.8689 68.5166 63.7399 69.9994C64.611 71.4823 65.5006 72.928 66.4088 74.3367ZM80.1051 35.7644C81.8287 37.5438 83.5524 39.5271 85.2575 41.6958C83.5894 41.6216 81.8843 41.566 80.1607 41.566C78.4185 41.566 76.6949 41.6031 75.0084 41.6958C76.6764 39.5271 78.4 37.5438 80.1051 35.7644ZM66.3902 46.6818C65.4821 48.109 64.5739 49.5734 63.7214 51.0747C62.8689 52.5576 62.0719 54.0404 61.312 55.5232C60.3112 53.0395 59.4587 50.5557 58.7544 48.1461C61.1823 47.5715 63.7399 47.0711 66.3902 46.6818ZM49.6173 69.8882C43.0564 67.0894 38.8122 63.4193 38.8122 60.5093C38.8122 57.5992 43.0564 53.9106 49.6173 51.1303C51.2112 50.4445 52.9534 49.8328 54.7511 49.2582C55.8076 52.8912 57.1976 56.6724 58.9212 60.5463C57.2161 64.4017 55.8446 68.1644 54.8067 71.7788C52.9719 71.2042 51.2298 70.574 49.6173 69.8882ZM59.5884 96.3754C57.0678 94.9296 55.9744 89.4246 56.8269 82.3441C57.0308 80.6017 57.3644 78.7667 57.7721 76.8946C61.4047 77.7843 65.3709 78.4701 69.541 78.915C72.043 82.3441 74.6377 85.458 77.2509 88.1827C71.209 93.799 65.5377 96.8759 61.6827 96.8759C60.8487 96.8573 60.1444 96.6905 59.5884 96.3754ZM103.55 82.2514C104.421 89.3319 103.346 94.837 100.844 96.3013C100.288 96.6349 99.5654 96.7832 98.7128 96.7832C94.8764 96.7832 89.1866 93.7248 83.1446 88.1457C85.7393 85.421 88.334 82.3255 90.799 78.8965C94.9876 78.4516 98.9538 77.7658 102.586 76.8576C103.013 78.7296 103.346 80.5276 103.55 82.2514ZM110.686 69.8882C109.092 70.574 107.35 71.1857 105.552 71.7603C104.495 68.1274 103.105 64.3461 101.382 60.4722C103.087 56.6168 104.458 52.8541 105.496 49.2397C107.331 49.8143 109.073 50.4445 110.704 51.1303C117.265 53.9292 121.509 57.5992 121.509 60.5093C121.491 63.4193 117.246 67.1079 110.686 69.8882Z" fill="#1DCFFF"/>
<path d="M80.1422 68.98C84.8199 68.98 88.612 65.1875 88.612 60.5093C88.612 55.8311 84.8199 52.0386 80.1422 52.0386C75.4645 52.0386 71.6723 55.8311 71.6723 60.5093C71.6723 65.1875 75.4645 68.98 80.1422 68.98Z" fill="#1DCFFF"/>
</svg>
