<svg width="32" height="32" viewBox="0 0 32 32" fill="none" xmlns="http://www.w3.org/2000/svg">
<path fill-rule="evenodd" clip-rule="evenodd" d="M0.12875 18.0802C0.0409701 17.3625 0.00144481 16.8118 0 16.3013H4.13117V16.3013C4.13117 22.2308 6.50297 24.0097 10.2089 24.0097H11.0983V8.59295H10.2089C9.74955 8.59295 9.31068 8.62028 8.89428 8.67946V8.02695C9.27479 8.00867 9.66383 8 10.0607 8H15.36H16.4349H21.8137C27.0668 8 30.9691 9.48571 31.8696 14.5371C32.0262 15.7894 32.0599 16.5627 31.8696 18.1029C30.9691 23.1543 27.0668 24.64 21.8137 24.64H15.36V24.6026H10.0607C4.87236 24.6026 1.01818 23.1203 0.12875 18.0802ZM15.9617 24.1642L16.8609 23.8971V8.74286L15.8991 8.45723L14.9525 8.74119V23.8614L15.9617 24.1642ZM20.7631 8.59429V24.0457H21.6637C25.4158 24.0457 27.8172 22.2629 27.8172 16.32C27.8172 10.3771 25.4158 8.59429 21.6637 8.59429H20.7631Z" fill="#00CDCD"/>
</svg>
